#N canvas 277 99 948 531 10;
#X obj 56 202 sel 0 1 2 3 4 5 6 7 8 9 10 11 12 13 14 15;
#X obj 182 259 spigot;
#X obj 110 117 tgl 15 0 empty empty empty 17 7 0 10 -262144 -1 -1 0
1;
#X obj 201 283 spigot;
#X obj 129 117 tgl 15 0 empty empty empty 17 7 0 10 -262144 -1 -1 0
1;
#X obj 135 259 spigot;
#X obj 148 117 tgl 15 0 empty empty empty 17 7 0 10 -262144 -1 -1 0
1;
#X obj 154 283 spigot;
#X obj 167 117 tgl 15 0 empty empty empty 17 7 0 10 -262144 -1 -1 0
1;
#X obj 137 309 spigot;
#X obj 156 333 spigot;
#X obj 185 309 spigot;
#X obj 204 333 spigot;
#X obj 245 258 spigot;
#X obj 264 282 spigot;
#X obj 291 258 spigot;
#X obj 310 282 spigot;
#X obj 247 309 spigot;
#X obj 266 333 spigot;
#X obj 294 309 spigot;
#X obj 313 333 spigot;
#X obj 199 117 tgl 15 0 empty empty empty 17 7 0 10 -262144 -1 -1 0
1;
#X obj 218 117 tgl 15 0 empty empty empty 17 7 0 10 -262144 -1 -1 0
1;
#X obj 237 117 tgl 15 0 empty empty empty 17 7 0 10 -262144 -1 -1 0
1;
#X obj 256 117 tgl 15 0 empty empty empty 17 7 0 10 -262144 -1 -1 0
1;
#X obj 289 117 tgl 15 0 empty empty empty 17 7 0 10 -262144 -1 -1 0
1;
#X obj 308 117 tgl 15 0 empty empty empty 17 7 0 10 -262144 -1 -1 0
1;
#X obj 327 117 tgl 15 0 empty empty empty 17 7 0 10 -262144 -1 -1 0
1;
#X obj 346 117 tgl 15 0 empty empty empty 17 7 0 10 -262144 -1 -1 0
1;
#X obj 378 117 tgl 15 0 empty empty empty 17 7 0 10 -262144 -1 -1 0
1;
#X obj 397 117 tgl 15 0 empty empty empty 17 7 0 10 -262144 -1 -1 0
1;
#X obj 416 117 tgl 15 0 empty empty empty 17 7 0 10 -262144 -1 -1 0
1;
#X obj 435 117 tgl 15 0 empty empty empty 17 7 0 10 -262144 -1 -1 0
1;
#X obj 56 180 inlet;
#X obj 99 180 outlet;
#X floatatom 17 181 5 0 0 0 - - -;
#X obj 172 394 bng 15 250 50 0 empty empty empty 17 7 0 10 -262144
-1 -1;
#X obj 121 31 inlet;
#X obj 159 31 inlet;
#X obj 197 31 inlet;
#X obj 235 31 inlet;
#X obj 273 31 inlet;
#X obj 311 31 inlet;
#X obj 349 31 inlet;
#X obj 387 31 inlet;
#X obj 141 54 inlet;
#X obj 179 54 inlet;
#X obj 217 54 inlet;
#X obj 255 54 inlet;
#X obj 293 54 inlet;
#X obj 331 54 inlet;
#X obj 368 54 inlet;
#X obj 405 54 inlet;
#X obj 172 416 outlet;
#X connect 0 0 1 0;
#X connect 0 1 3 0;
#X connect 0 2 5 0;
#X connect 0 3 7 0;
#X connect 0 4 9 0;
#X connect 0 5 10 0;
#X connect 0 6 11 0;
#X connect 0 7 12 0;
#X connect 0 8 13 0;
#X connect 0 9 14 0;
#X connect 0 10 15 0;
#X connect 0 11 16 0;
#X connect 0 12 17 0;
#X connect 0 13 18 0;
#X connect 0 14 19 0;
#X connect 0 15 20 0;
#X connect 1 0 7 1;
#X connect 1 0 36 0;
#X connect 2 0 1 1;
#X connect 3 0 36 0;
#X connect 4 0 3 1;
#X connect 5 0 36 0;
#X connect 6 0 5 1;
#X connect 7 0 36 0;
#X connect 8 0 7 1;
#X connect 9 0 36 0;
#X connect 10 0 36 0;
#X connect 11 0 36 0;
#X connect 12 0 36 0;
#X connect 13 0 36 0;
#X connect 14 0 36 0;
#X connect 15 0 36 0;
#X connect 16 0 36 0;
#X connect 17 0 36 0;
#X connect 18 0 36 0;
#X connect 19 0 36 0;
#X connect 20 0 36 0;
#X connect 21 0 9 1;
#X connect 22 0 10 1;
#X connect 23 0 11 1;
#X connect 24 0 12 1;
#X connect 25 0 13 1;
#X connect 26 0 14 1;
#X connect 27 0 15 1;
#X connect 28 0 16 1;
#X connect 29 0 17 1;
#X connect 30 0 18 1;
#X connect 31 0 19 1;
#X connect 32 0 20 1;
#X connect 33 0 0 0;
#X connect 33 0 34 0;
#X connect 33 0 35 0;
#X connect 36 0 53 0;
#X connect 37 0 2 0;
#X connect 38 0 6 0;
#X connect 39 0 21 0;
#X connect 40 0 23 0;
#X connect 41 0 25 0;
#X connect 42 0 27 0;
#X connect 43 0 29 0;
#X connect 44 0 31 0;
#X connect 45 0 4 0;
#X connect 46 0 8 0;
#X connect 47 0 22 0;
#X connect 48 0 24 0;
#X connect 49 0 26 0;
#X connect 50 0 28 0;
#X connect 51 0 30 0;
#X connect 52 0 32 0;
#X coords 0 -1 1 1 360 40 1 100 100;
