#N canvas 554 56 636 753 12;
#X text 84 307 Sand A 1~8;
#X text 91 330 9-13~9-20;
#X obj 44 34 r novationLC-TA1;
#X obj 45 70 r novationLC-TA2;
#X obj 45 105 r novationLC-TA3;
#X obj 45 140 r novationLC-TA4;
#X obj 44 174 r novationLC-TA5;
#X obj 44 209 r novationLC-TA6;
#X obj 44 243 r novationLC-TA7;
#X obj 44 278 r novationLC-TA8;
#X text 219 307 Sand B 1~8;
#X text 226 330 9-29~9-36;
#X text 353 309 Pan/Device;
#X text 360 332 9-49~9-56;
#X obj 178 34 s novationLC-TB1;
#X obj 179 70 s novationLC-TB2;
#X obj 179 105 s novationLC-TB3;
#X obj 179 140 s novationLC-TB4;
#X obj 178 243 s novationLC-TB7;
#X obj 178 209 s novationLC-TB6;
#X obj 178 174 s novationLC-TB5;
#X obj 311 34 s novationLC-TC1;
#X obj 312 70 s novationLC-TC2;
#X obj 312 105 s novationLC-TC3;
#X obj 312 140 s novationLC-TC4;
#X obj 311 174 s novationLC-TC5;
#X obj 311 209 s novationLC-TC6;
#X obj 311 243 s novationLC-TC7;
#X obj 311 278 s novationLC-TC8;
#X obj 178 278 s novationLC-TB8;
#X text 484 333 9-77~9-84;
#X text 470 310 sliderV 1~8;
#X obj 444 34 s novationLC-V1;
#X obj 445 70 s novationLC-V2;
#X obj 445 105 s novationLC-V3;
#X obj 445 140 s novationLC-V4;
#X obj 444 174 s novationLC-V5;
#X obj 444 209 s novationLC-V6;
#X obj 444 243 s novationLC-V7;
#X obj 444 278 s novationLC-V8;
#X obj 44 410 s novationLC-BA1;
#X obj 44 444 s novationLC-BA2;
#X obj 44 477 s novationLC-BA3;
#X obj 44 510 s novationLC-BA4;
#X obj 44 543 s novationLC-BA5;
#X obj 44 576 s novationLC-BA6;
#X obj 44 609 s novationLC-BA7;
#X obj 44 642 s novationLC-BA8;
#X obj 176 410 s novationLC-BB1;
#X obj 176 444 s novationLC-BB2;
#X obj 176 477 s novationLC-BB3;
#X obj 176 510 s novationLC-BB4;
#X obj 176 543 s novationLC-BB5;
#X obj 176 576 s novationLC-BB6;
#X obj 176 609 s novationLC-BB7;
#X obj 176 642 s novationLC-BB8;
#X obj 310 510 s novationLC-BRight;
#X obj 310 477 s novationLC-BLeft;
#X obj 310 410 s novationLC-BUp;
#X obj 310 444 s novationLC-BDown;
#X obj 464 409 s novationLC-BDev;
#X obj 464 443 s novationLC-BMut;
#X obj 464 477 s novationLC-BSol;
#X obj 464 510 s novationLC-BRec;
#X text 537 551 Device;
#X text 551 586 Mute;
#X text 551 618 Solo;
#X text 517 651 RecordArm;
#X text 348 553 SendSelect up;
#X text 335 585 SendSelect down;
#X text 328 616 TrackSelect left;
#X text 321 647 TrackSelect right;
#X text 56 674 TrackFoucs 1~4;
#X text 56 697 TrackFoucs 5~8;
#X text 201 674 TrackCon 1~4;
#X text 202 696 TrackCon 5~8;
