#N canvas 133 59 1609 974 12;
#X floatatom 96 106 0 0 0 0 - - -;
#X floatatom 63 137 0 0 0 0 - - -;
#X floatatom 130 76 0 0 0 0 - - -;
#X obj 63 35 ctlin;
#X text 94 138 value;
#X text 161 77 channel;
#X text 107 34 (all controllers \, omni);
#X text 127 106 controller #;
#X obj 63 174 pack f f f;
#X msg 63 201 \$3-\$2 \$1;
#X floatatom 727 103 0 0 0 0 - - -;
#X obj 694 46 notein;
#X floatatom 694 126 0 0 0 0 - - -;
#X floatatom 761 78 0 0 0 0 - - -;
#X text 757 104 velocity;
#X text 790 80 channel;
#X text 744 45 (omni);
#X text 724 126 note;
#X obj 694 164 pack f f f;
#X floatatom 127 312 5 0 0 0 - - -;
#X floatatom 140 359 5 0 0 0 - - -;
#X floatatom 153 406 5 0 0 0 - - -;
#X floatatom 166 453 5 0 0 0 - - -;
#X msg 694 191 \$3-\$1 \$2;
#X floatatom 179 501 5 0 0 0 - - -;
#X floatatom 192 548 5 0 0 0 - - -;
#X floatatom 205 596 5 0 0 0 - - -;
#X floatatom 218 644 5 0 0 0 - - -;
#X text 116 696 Sand A 1~8;
#X text 123 719 9-13~9-20;
#X floatatom 231 310 5 0 0 0 - - -;
#X floatatom 244 359 5 0 0 0 - - -;
#X floatatom 257 407 5 0 0 0 - - -;
#X floatatom 270 453 5 0 0 0 - - -;
#X floatatom 283 501 5 0 0 0 - - -;
#X floatatom 296 548 5 0 0 0 - - -;
#X floatatom 309 596 5 0 0 0 - - -;
#X floatatom 322 643 5 0 0 0 - - -;
#X floatatom 716 401 5 0 0 0 - - -;
#X obj 716 374 expr if($f1==127 \, 1 \, 0);
#X floatatom 755 428 5 0 0 0 - - -;
#X obj 755 401 expr if($f1==127 \, 1 \, 0);
#X floatatom 794 455 5 0 0 0 - - -;
#X obj 794 428 expr if($f1==127 \, 1 \, 0);
#X floatatom 833 482 5 0 0 0 - - -;
#X obj 833 455 expr if($f1==127 \, 1 \, 0);
#X floatatom 872 589 5 0 0 0 - - -;
#X obj 872 562 expr if($f1==127 \, 1 \, 0);
#X floatatom 912 616 5 0 0 0 - - -;
#X obj 912 589 expr if($f1==127 \, 1 \, 0);
#X floatatom 951 643 5 0 0 0 - - -;
#X obj 951 616 expr if($f1==127 \, 1 \, 0);
#X floatatom 990 670 5 0 0 0 - - -;
#X obj 990 643 expr if($f1==127 \, 1 \, 0);
#X obj 127 252 route 9-13 9-14 9-15 9-16 9-17 9-18 9-19 9-20 9-29 9-30
9-31 9-32 9-33 9-34 9-35 9-36 9-49 9-50 9-51 9-52 9-53 9-54 9-55 9-56
9-77 9-78 9-79 9-80 9-81 9-82 9-83 9-84;
#X obj 716 308 route 9-41 9-42 9-43 9-44 9-57 9-58 9-59 9-60;
#X floatatom 1123 402 5 0 0 0 - - -;
#X obj 1123 375 expr if($f1==127 \, 1 \, 0);
#X floatatom 1162 429 5 0 0 0 - - -;
#X obj 1162 402 expr if($f1==127 \, 1 \, 0);
#X floatatom 1201 456 5 0 0 0 - - -;
#X obj 1201 429 expr if($f1==127 \, 1 \, 0);
#X floatatom 1240 483 5 0 0 0 - - -;
#X obj 1240 456 expr if($f1==127 \, 1 \, 0);
#X floatatom 1279 582 5 0 0 0 - - -;
#X obj 1279 555 expr if($f1==127 \, 1 \, 0);
#X floatatom 1319 609 5 0 0 0 - - -;
#X obj 1319 582 expr if($f1==127 \, 1 \, 0);
#X floatatom 1358 636 5 0 0 0 - - -;
#X obj 1358 609 expr if($f1==127 \, 1 \, 0);
#X floatatom 1397 663 5 0 0 0 - - -;
#X obj 1397 636 expr if($f1==127 \, 1 \, 0);
#X obj 1123 308 route 9-73 9-74 9-75 9-76 9-89 9-90 9-91 9-92;
#X floatatom 63 825 5 0 0 0 - - -;
#X obj 63 798 expr if($f1==127 \, 1 \, 0);
#X floatatom 113 852 5 0 0 0 - - -;
#X obj 113 825 expr if($f1==127 \, 1 \, 0);
#X floatatom 163 879 5 0 0 0 - - -;
#X obj 163 852 expr if($f1==127 \, 1 \, 0);
#X floatatom 213 906 5 0 0 0 - - -;
#X obj 213 879 expr if($f1==127 \, 1 \, 0);
#X floatatom 694 786 5 0 0 0 - - -;
#X obj 694 759 expr if($f1==127 \, 1 \, 0);
#X floatatom 744 813 5 0 0 0 - - -;
#X obj 744 786 expr if($f1==127 \, 1 \, 0);
#X floatatom 794 840 5 0 0 0 - - -;
#X obj 794 813 expr if($f1==127 \, 1 \, 0);
#X floatatom 844 867 5 0 0 0 - - -;
#X obj 844 840 expr if($f1==127 \, 1 \, 0);
#X floatatom 335 308 5 0 0 0 - - -;
#X floatatom 348 358 5 0 0 0 - - -;
#X floatatom 361 407 5 0 0 0 - - -;
#X floatatom 374 453 5 0 0 0 - - -;
#X floatatom 387 500 5 0 0 0 - - -;
#X floatatom 400 546 5 0 0 0 - - -;
#X floatatom 413 594 5 0 0 0 - - -;
#X floatatom 426 643 5 0 0 0 - - -;
#X floatatom 439 306 5 0 0 0 - - -;
#X floatatom 452 355 5 0 0 0 - - -;
#X floatatom 465 405 5 0 0 0 - - -;
#X floatatom 478 453 5 0 0 0 - - -;
#X floatatom 491 500 5 0 0 0 - - -;
#X floatatom 504 546 5 0 0 0 - - -;
#X floatatom 517 594 5 0 0 0 - - -;
#X floatatom 530 642 5 0 0 0 - - -;
#X text 238 695 Sand B 1~8;
#X text 245 718 9-29~9-36;
#X text 357 698 Pan/Device;
#X text 364 721 9-49~9-56;
#X text 479 722 9-77~9-84;
#X text 465 699 sliderV 1~8;
#X text 240 799 SendSelect up;
#X text 290 825 SendSelect down;
#X text 341 852 TrackSelect left;
#X text 390 880 TrackSelect right;
#X text 605 386 TrackFoucs 1~4;
#X text 758 576 TrackFoucs 5~8;
#X text 870 759 Device;
#X text 920 785 Mute;
#X text 970 813 Solo;
#X text 1022 841 RecordArm;
#X text 1020 389 TrackCon 1~4;
#X text 1176 569 TrackCon 5~8;
#X obj 80 524 s novationLC-TA5;
#X obj 335 144 outlet;
#X obj 80 335 s novationLC-TA1;
#X obj 81 382 s novationLC-TA2;
#X obj 81 429 s novationLC-TA3;
#X obj 81 476 s novationLC-TA4;
#X obj 80 571 s novationLC-TA6;
#X obj 80 619 s novationLC-TA7;
#X obj 80 667 s novationLC-TA8;
#X obj 200 333 s novationLC-TB1;
#X obj 199 382 s novationLC-TB2;
#X obj 199 430 s novationLC-TB3;
#X obj 199 476 s novationLC-TB4;
#X obj 200 619 s novationLC-TB7;
#X obj 199 571 s novationLC-TB6;
#X obj 199 524 s novationLC-TB5;
#X obj 318 331 s novationLC-TC1;
#X obj 317 381 s novationLC-TC2;
#X obj 317 430 s novationLC-TC3;
#X obj 317 476 s novationLC-TC4;
#X obj 317 523 s novationLC-TC5;
#X obj 318 570 s novationLC-TC6;
#X obj 319 619 s novationLC-TC7;
#X obj 319 667 s novationLC-TC8;
#X obj 439 329 s novationLC-V1;
#X obj 436 381 s novationLC-V2;
#X obj 436 430 s novationLC-V3;
#X obj 437 476 s novationLC-V4;
#X obj 437 523 s novationLC-V5;
#X obj 438 570 s novationLC-V6;
#X obj 439 619 s novationLC-V7;
#X obj 439 667 s novationLC-V8;
#X obj 63 765 route 9-104 9-105 9-106 9-107;
#X obj 694 731 route 9-105 9-106 9-107 9-108;
#X obj 641 428 s novationLC-BA1;
#X obj 674 454 s novationLC-BA2;
#X obj 711 481 s novationLC-BA3;
#X obj 833 505 s novationLC-BA4;
#X obj 792 616 s novationLC-BA5;
#X obj 830 643 s novationLC-BA6;
#X obj 869 668 s novationLC-BA7;
#X obj 990 693 s novationLC-BA8;
#X obj 1035 428 s novationLC-BB1;
#X obj 1074 457 s novationLC-BB2;
#X obj 1119 483 s novationLC-BB3;
#X obj 1240 506 s novationLC-BB4;
#X obj 1199 609 s novationLC-BB5;
#X obj 1238 635 s novationLC-BB6;
#X obj 1277 664 s novationLC-BB7;
#X obj 1397 686 s novationLC-BB8;
#X obj 288 118 expr if($f1==9 \, 1 \, 0);
#X floatatom 288 144 5 0 0 0 - - -;
#X text 255 171 1 -> can used \; 0 -> can't;
#X obj 200 667 s novationLC-TB8;
#X obj 410 906 s novationLC-BRight;
#X obj 272 906 s novationLC-BLeft;
#X obj 38 879 s novationLC-BUp;
#X obj 37 906 s novationLC-BDown;
#X obj 613 812 s novationLC-BDev;
#X obj 664 839 s novationLC-BMut;
#X obj 713 866 s novationLC-BSol;
#X obj 844 892 s novationLC-BRec;
#X connect 0 0 8 1;
#X connect 1 0 8 0;
#X connect 2 0 8 2;
#X connect 2 0 173 0;
#X connect 3 0 1 0;
#X connect 3 1 0 0;
#X connect 3 2 2 0;
#X connect 8 0 9 0;
#X connect 9 0 54 0;
#X connect 9 0 155 0;
#X connect 10 0 18 1;
#X connect 11 0 12 0;
#X connect 11 1 10 0;
#X connect 11 2 13 0;
#X connect 12 0 18 0;
#X connect 13 0 18 2;
#X connect 18 0 23 0;
#X connect 19 0 125 0;
#X connect 20 0 126 0;
#X connect 21 0 127 0;
#X connect 22 0 128 0;
#X connect 23 0 55 0;
#X connect 23 0 72 0;
#X connect 23 0 156 0;
#X connect 24 0 123 0;
#X connect 25 0 129 0;
#X connect 26 0 130 0;
#X connect 27 0 131 0;
#X connect 30 0 132 0;
#X connect 31 0 133 0;
#X connect 32 0 134 0;
#X connect 33 0 135 0;
#X connect 34 0 138 0;
#X connect 35 0 137 0;
#X connect 36 0 136 0;
#X connect 37 0 176 0;
#X connect 38 0 157 0;
#X connect 39 0 38 0;
#X connect 40 0 158 0;
#X connect 41 0 40 0;
#X connect 42 0 159 0;
#X connect 43 0 42 0;
#X connect 44 0 160 0;
#X connect 45 0 44 0;
#X connect 46 0 161 0;
#X connect 47 0 46 0;
#X connect 48 0 162 0;
#X connect 49 0 48 0;
#X connect 50 0 163 0;
#X connect 51 0 50 0;
#X connect 52 0 164 0;
#X connect 53 0 52 0;
#X connect 54 0 19 0;
#X connect 54 1 20 0;
#X connect 54 2 21 0;
#X connect 54 3 22 0;
#X connect 54 4 24 0;
#X connect 54 5 25 0;
#X connect 54 6 26 0;
#X connect 54 7 27 0;
#X connect 54 8 30 0;
#X connect 54 9 31 0;
#X connect 54 10 32 0;
#X connect 54 11 33 0;
#X connect 54 12 34 0;
#X connect 54 13 35 0;
#X connect 54 14 36 0;
#X connect 54 15 37 0;
#X connect 54 16 89 0;
#X connect 54 17 90 0;
#X connect 54 18 91 0;
#X connect 54 19 92 0;
#X connect 54 20 93 0;
#X connect 54 21 94 0;
#X connect 54 22 95 0;
#X connect 54 23 96 0;
#X connect 54 24 97 0;
#X connect 54 25 98 0;
#X connect 54 26 99 0;
#X connect 54 27 100 0;
#X connect 54 28 101 0;
#X connect 54 29 102 0;
#X connect 54 30 103 0;
#X connect 54 31 104 0;
#X connect 55 0 39 0;
#X connect 55 1 41 0;
#X connect 55 2 43 0;
#X connect 55 3 45 0;
#X connect 55 4 47 0;
#X connect 55 5 49 0;
#X connect 55 6 51 0;
#X connect 55 7 53 0;
#X connect 56 0 165 0;
#X connect 57 0 56 0;
#X connect 58 0 166 0;
#X connect 59 0 58 0;
#X connect 60 0 167 0;
#X connect 61 0 60 0;
#X connect 62 0 168 0;
#X connect 63 0 62 0;
#X connect 64 0 169 0;
#X connect 65 0 64 0;
#X connect 66 0 170 0;
#X connect 67 0 66 0;
#X connect 68 0 171 0;
#X connect 69 0 68 0;
#X connect 70 0 172 0;
#X connect 71 0 70 0;
#X connect 72 0 57 0;
#X connect 72 1 59 0;
#X connect 72 2 61 0;
#X connect 72 3 63 0;
#X connect 72 4 65 0;
#X connect 72 5 67 0;
#X connect 72 6 69 0;
#X connect 72 7 71 0;
#X connect 73 0 179 0;
#X connect 74 0 73 0;
#X connect 75 0 180 0;
#X connect 76 0 75 0;
#X connect 77 0 178 0;
#X connect 78 0 77 0;
#X connect 79 0 177 0;
#X connect 80 0 79 0;
#X connect 81 0 181 0;
#X connect 82 0 81 0;
#X connect 83 0 182 0;
#X connect 84 0 83 0;
#X connect 85 0 183 0;
#X connect 86 0 85 0;
#X connect 87 0 184 0;
#X connect 88 0 87 0;
#X connect 89 0 139 0;
#X connect 90 0 140 0;
#X connect 91 0 141 0;
#X connect 92 0 142 0;
#X connect 93 0 143 0;
#X connect 94 0 144 0;
#X connect 95 0 145 0;
#X connect 96 0 146 0;
#X connect 97 0 147 0;
#X connect 98 0 148 0;
#X connect 99 0 149 0;
#X connect 100 0 150 0;
#X connect 101 0 151 0;
#X connect 102 0 152 0;
#X connect 103 0 153 0;
#X connect 104 0 154 0;
#X connect 155 0 74 0;
#X connect 155 1 76 0;
#X connect 155 2 78 0;
#X connect 155 3 80 0;
#X connect 156 0 82 0;
#X connect 156 1 84 0;
#X connect 156 2 86 0;
#X connect 156 3 88 0;
#X connect 173 0 174 0;
#X connect 174 0 124 0;
